# xmcd
#
# Track frame offsets:
#	150
#	15641
#	29674
#	43534
#	57387
#	75855
#	90460
#	103991
#	125015
#	143128
#	163460
#	177812
#	194996
#	215075
#	228082
#	242332
#	261411
#	279339
#	293038
#	311284
#	331242
#
# Disc length: 4659 seconds
#
# Revision: 0
# Processed by: cddbd v1.5.2PL0 Copyright (c) Steve Scherf et al.
# Submitted via: EasyCDDAExtractor 16.0.6.1
#
DISCID=30123115
DTITLE=Συλλογικός δίσκος - Περί της λέξεως ''ρεμπέτικο''
DYEAR=2006
DGENRE=Ποικίλη
TTITLE0=Ελληνική Εστουδιαντίνα - Απονιά [1910-12]
TTITLE1=Ψωματιανός Γιάγκος - Τίκι τίκι τακ [1913]
TTITLE2=Παπαγκίκα Μαρίκα - Σμυρνιά [1923]
TTITLE3=Βιδάλης Γιώργος - Τι σε μέλλει εσένανε [1926]
TTITLE4=Παπαγκίκα Μαρίκα - Μέσ' στου Συγγρού τη φυλακή [1926]
TTITLE5=Διαμαντίδης Αντώνης ή Νταλγκάς - Σάλα σάλα [1927]
TTITLE6=Πωλ - Ομολογίες [1927]
TTITLE7=Κατσαρός Γιώργος - Και γιατί δε μάς το λες [1928]
TTITLE8=Ιωαννίδης Γιαννάκης - Από κάτω απ' τις ντομάτες [1928]
TTITLE9=Νικολάου Τάκης - Τούρνενε [1928]
TTITLE10=Διαμαντίδης Αντώνης ή Νταλγκάς - Έλα στ' Ανάπλι [1928]
TTITLE11=Κοβορός Ι.-Παπουτσής Ν. - Χάϊδω [1928]
TTITLE12=Κατσαρός Γιώργος - Ο γιατρός [1928]
TTITLE13=Καρίπης Κώστας - Σαν πας στα ξένα [1928]
TTITLE14=Διαμαντίδης Αντώνης ή Νταλγκάς - Μπαρμπα Γιαννακάκης [1928]
TTITLE15=Βάκα Αμαλία - Χωρίς ελπίδα ζω [1929]
TTITLE16=Παπαγκίκα Μαρίκα - Φονιάς θα γίνω [1929]
TTITLE17=Διαμαντίδης Αντώνης ή Νταλγκάς - Τι να κάνω η κακομοίρα [1930]
TTITLE18=Δούσας Κώστας - Καλογεράκι [1930]
TTITLE19=Ιωαννίδης Γιαννάκης-Κουρούκλη Λίζα - Ύμνος στην ρετσίνα [1931]
TTITLE20=Διαμαντίδης Αντώνης ή Νταλγκάς - Οι αβάντες του σωφέρ [1932] 
EXTD=
EXTT0=
EXTT1=
EXTT2=
EXTT3=
EXTT4=
EXTT5=
EXTT6=
EXTT7=
EXTT8=
EXTT9=
EXTT10=
EXTT11=
EXTT12=
EXTT13=
EXTT14=
EXTT15=
EXTT16=
EXTT17=
EXTT18=
EXTT19=
EXTT20=
PLAYORDER=
